<svg width="76" height="78" viewBox="0 0 76 78" fill="none" xmlns="http://www.w3.org/2000/svg">
<g clip-path="url(#clip0_1_659)">
<path d="M75.8535 42.6028C75.1711 35.5587 72.1048 28.9177 67.219 23.9033C63.0437 19.6182 57.9332 16.8646 52.5559 15.6402V11.7694C54.7522 11.2086 56.3847 9.1682 56.3847 6.743C56.3847 3.88682 54.1207 1.56323 51.3378 1.56323H40.6501C37.8671 1.56323 35.6031 3.88682 35.6031 6.743C35.6031 9.16805 37.2357 11.2084 39.4319 11.7694V15.651C34.0709 16.8806 28.9774 19.6304 24.8139 23.9034C23.9028 24.8385 23.0627 25.8195 22.2936 26.839C22.2563 26.8361 22.2191 26.8332 22.1811 26.8332H11.6031C10.7834 26.8332 10.1187 27.5152 10.1187 28.3566C10.1187 29.1981 10.7834 29.8801 11.6031 29.8801H20.2738C19.1854 31.7502 18.3078 33.7141 17.6398 35.7357H1.4844C0.664714 35.7357 0 36.4177 0 37.2591C0 38.1006 0.664714 38.7826 1.4844 38.7826H16.801C16.3732 40.7099 16.1277 42.6714 16.0643 44.6383H9.50015C8.68046 44.6383 8.01575 45.3204 8.01575 46.1618C8.01575 47.0032 8.68046 47.6853 9.50015 47.6853H16.1117C16.2369 49.6572 16.5458 51.6188 17.0385 53.541H7.42199C6.60231 53.541 5.93759 54.223 5.93759 55.0644C5.93759 55.9058 6.60231 56.5879 7.42199 56.5879H17.9859C19.4421 60.5414 21.7178 64.247 24.8139 67.4246C29.7044 72.4438 36.1818 75.5916 43.0524 76.2882C44.033 76.3876 45.0144 76.4368 45.9944 76.4368C51.7868 76.4368 57.5056 74.7163 62.3581 71.4732C63.0451 71.014 63.2394 70.0702 62.792 69.3652C62.3446 68.6601 61.425 68.4607 60.738 68.9199C50.1161 76.0187 35.8907 74.4838 26.9132 65.2701C16.3796 54.4593 16.3796 36.869 26.9132 26.0581C37.4466 15.2474 54.5859 15.2474 65.1197 26.0581C74.0853 35.2598 75.589 49.847 68.695 60.7431C68.2485 61.4488 68.444 62.3924 69.1314 62.8505C69.8193 63.3088 70.7384 63.1082 71.1848 62.4025C74.8681 56.5806 76.5262 49.5491 75.8535 42.6028ZM38.5719 6.74315C38.5719 5.56704 39.5041 4.61031 40.6501 4.61031H51.3378C52.4837 4.61031 53.4159 5.56704 53.4159 6.74315C53.4159 7.91926 52.4837 8.876 51.3378 8.876H51.0715H40.9162H40.6501C39.5041 8.876 38.5719 7.91911 38.5719 6.74315ZM42.4007 15.1272V11.9229H49.5871V15.1217C47.2007 14.8304 44.7865 14.8323 42.4007 15.1272Z" fill="url(#paint0_linear_1_659)"/>
<path d="M66.1699 64.8232C65.778 64.8232 65.3966 64.9862 65.1206 65.2695C64.843 65.5529 64.6855 65.946 64.6855 66.3466C64.6855 66.7473 64.843 67.1403 65.1206 67.4237C65.3966 67.7086 65.7782 67.8701 66.1699 67.8701C66.5603 67.8701 66.9418 67.7086 67.2194 67.4237C67.4955 67.1403 67.6543 66.7473 67.6543 66.3466C67.6543 65.946 67.4956 65.5529 67.2194 65.2695C66.9418 64.9862 66.5602 64.8232 66.1699 64.8232Z" fill="url(#paint1_linear_1_659)"/>
<path d="M46.0166 22.0305C33.3193 22.0305 22.9893 32.6322 22.9893 45.6638C22.9893 58.6953 33.3193 69.2971 46.0166 69.2971C58.7138 69.2971 69.0439 58.6953 69.0439 45.6638C69.0439 32.6322 58.7138 22.0305 46.0166 22.0305ZM46.0166 66.2501C34.9562 66.2501 25.9581 57.0151 25.9581 45.6638C25.9581 34.3124 34.9562 25.0774 46.0166 25.0774C57.077 25.0774 66.0751 34.3124 66.0751 45.6638C66.0751 57.0151 57.077 66.2501 46.0166 66.2501Z" fill="url(#paint2_linear_1_659)"/>
<path d="M55.4061 33.8725L48.0539 41.4181C47.439 41.1061 46.7474 40.9298 46.0164 40.9298C45.2852 40.9298 44.5937 41.1061 43.9789 41.4181L40.6884 38.041C40.1086 37.4461 39.169 37.4461 38.589 38.041C38.0094 38.6359 38.0094 39.6006 38.589 40.1955L41.8795 43.5726C41.5753 44.2036 41.4038 44.9134 41.4038 45.6637C41.4038 48.274 43.4729 50.3977 46.0164 50.3977C48.5599 50.3977 50.629 48.274 50.629 45.6637C50.629 44.9134 50.4572 44.2036 50.1532 43.5726L57.2896 36.2484L57.5053 36.027C58.085 35.4321 58.085 34.4675 57.5053 33.8725C56.9257 33.2776 55.986 33.2776 55.4061 33.8725ZM46.0164 47.3509C45.11 47.3509 44.3726 46.5941 44.3726 45.6638C44.3726 44.7336 45.11 43.9767 46.0164 43.9767C46.9227 43.9767 47.6602 44.7336 47.6602 45.6638C47.6602 46.5941 46.9227 47.3509 46.0164 47.3509Z" fill="url(#paint3_linear_1_659)"/>
<path d="M61.8875 44.1589H60.5122C59.6925 44.1589 59.0278 44.841 59.0278 45.6824C59.0278 46.5238 59.6925 47.2058 60.5122 47.2058H61.8875C62.7072 47.2058 63.3719 46.5238 63.3719 45.6824C63.3719 44.841 62.7072 44.1589 61.8875 44.1589Z" fill="url(#paint4_linear_1_659)"/>
<path d="M31.5206 44.1218H30.1455C29.3258 44.1218 28.6611 44.8039 28.6611 45.6453C28.6611 46.4867 29.3258 47.1687 30.1455 47.1687H31.5206C32.3403 47.1687 33.005 46.4867 33.005 45.6453C33.005 44.8039 32.3403 44.1218 31.5206 44.1218Z" fill="url(#paint5_linear_1_659)"/>
<path d="M46.0347 32.3098C46.8543 32.3098 47.519 31.6278 47.519 30.7864V29.3751C47.519 28.5337 46.8543 27.8516 46.0347 27.8516C45.215 27.8516 44.5503 28.5337 44.5503 29.3751V30.7864C44.5503 31.6278 45.215 32.3098 46.0347 32.3098Z" fill="url(#paint6_linear_1_659)"/>
<path d="M45.9985 59.0178C45.1789 59.0178 44.5142 59.6998 44.5142 60.5412V61.9525C44.5142 62.7939 45.1789 63.476 45.9985 63.476C46.8182 63.476 47.4829 62.7939 47.4829 61.9525V60.5412C47.4829 59.6998 46.8182 59.0178 45.9985 59.0178Z" fill="url(#paint7_linear_1_659)"/>
<path d="M1.48437 53.5403C1.09398 53.5403 0.711016 53.7034 0.434922 53.9867C0.158828 54.2701 0 54.6631 0 55.0638C0 55.466 0.15868 55.8575 0.434922 56.1409C0.711164 56.4242 1.09398 56.5872 1.48437 56.5872C1.87477 56.5872 2.25773 56.4242 2.53368 56.1409C2.80977 55.8575 2.96875 55.4644 2.96875 55.0638C2.96875 54.6631 2.80992 54.2701 2.53368 53.9867C2.25773 53.7034 1.87477 53.5403 1.48437 53.5403Z" fill="url(#paint8_linear_1_659)"/>
</g>
<defs>
<linearGradient id="paint0_linear_1_659" x1="11.3292" y1="132.972" x2="108.323" y2="-9.31999" gradientUnits="userSpaceOnUse">
<stop stop-color="#F07F1B"/>
<stop offset="1" stop-color="#FFEE00"/>
</linearGradient>
<linearGradient id="paint1_linear_1_659" x1="65.1281" y1="70.1707" x2="69.1316" y2="64.5328" gradientUnits="userSpaceOnUse">
<stop stop-color="#F07F1B"/>
<stop offset="1" stop-color="#FFEE00"/>
</linearGradient>
<linearGradient id="paint2_linear_1_659" x1="29.8545" y1="104.987" x2="91.962" y2="17.5256" gradientUnits="userSpaceOnUse">
<stop stop-color="#F07F1B"/>
<stop offset="1" stop-color="#FFEE00"/>
</linearGradient>
<linearGradient id="paint3_linear_1_659" x1="41.1037" y1="63.2123" x2="61.8367" y2="28.278" gradientUnits="userSpaceOnUse">
<stop stop-color="#F07F1B"/>
<stop offset="1" stop-color="#FFEE00"/>
</linearGradient>
<linearGradient id="paint4_linear_1_659" x1="59.6754" y1="49.5064" x2="63.0066" y2="42.6422" gradientUnits="userSpaceOnUse">
<stop stop-color="#F07F1B"/>
<stop offset="1" stop-color="#FFEE00"/>
</linearGradient>
<linearGradient id="paint5_linear_1_659" x1="29.3087" y1="49.4693" x2="32.6399" y2="42.6052" gradientUnits="userSpaceOnUse">
<stop stop-color="#F07F1B"/>
<stop offset="1" stop-color="#FFEE00"/>
</linearGradient>
<linearGradient id="paint6_linear_1_659" x1="44.9928" y1="35.6761" x2="51.1929" y2="29.709" gradientUnits="userSpaceOnUse">
<stop stop-color="#F07F1B"/>
<stop offset="1" stop-color="#FFEE00"/>
</linearGradient>
<linearGradient id="paint7_linear_1_659" x1="44.9567" y1="66.8422" x2="51.1568" y2="60.8751" gradientUnits="userSpaceOnUse">
<stop stop-color="#F07F1B"/>
<stop offset="1" stop-color="#FFEE00"/>
</linearGradient>
<linearGradient id="paint8_linear_1_659" x1="0.442545" y1="58.8878" x2="4.44609" y2="53.25" gradientUnits="userSpaceOnUse">
<stop stop-color="#F07F1B"/>
<stop offset="1" stop-color="#FFEE00"/>
</linearGradient>
<clipPath id="clip0_1_659">
<rect width="76" height="78" fill="white"/>
</clipPath>
</defs>
</svg>
