<svg width="86" height="86" viewBox="0 0 86 86" fill="none" xmlns="http://www.w3.org/2000/svg">
<path d="M56.4339 27.0142C56.2362 26.4061 55.7103 25.9632 55.0777 25.8713L47.7705 24.8114L44.501 18.1911C44.2178 17.6179 43.6341 17.2551 42.995 17.2551H42.9947C42.3552 17.2553 41.7715 17.6184 41.4886 18.1919L38.2228 24.8139L30.9161 25.8777C30.2834 25.9697 29.758 26.4132 29.5606 27.0212C29.3632 27.6293 29.5282 28.2968 29.9861 28.7429L35.2748 33.8954L34.0286 41.173C33.9206 41.8032 34.1799 42.44 34.6973 42.8158C34.9899 43.0282 35.3362 43.1362 35.6843 43.1362C35.9517 43.1362 36.2203 43.0724 36.4662 42.9431L43.0007 39.5054L49.5371 42.9396C50.103 43.237 50.7888 43.1873 51.306 42.8112C51.8231 42.4353 52.082 41.7984 51.9738 41.1683L50.7238 33.8914L56.0098 28.7362C56.4672 28.2897 56.6316 27.6222 56.4339 27.0142ZM47.7458 32.103C47.3501 32.489 47.1695 33.045 47.2631 33.5898L48.0865 38.3829L43.7813 36.121C43.292 35.8638 42.7073 35.864 42.218 36.1213L37.9139 38.3856L38.7348 33.592C38.8282 33.0471 38.6473 32.4912 38.2514 32.1053L34.768 28.7117L39.5805 28.0111C40.1276 27.9315 40.6004 27.5876 40.845 27.0919L42.996 22.7304L45.1495 27.0909C45.3944 27.5866 45.8674 27.9301 46.4145 28.0094L51.2274 28.7075L47.7458 32.103Z" fill="url(#paint0_linear_1_671)"/>
<path d="M80.7489 73.8004L66.8652 49.6513C71.0579 44.4177 73.5698 37.7824 73.5698 30.5705C73.5698 13.7139 59.856 0 42.9994 0C26.1428 0 12.4289 13.7139 12.4289 30.5705C12.4289 37.7824 14.9407 44.4177 19.1335 49.6513L5.24984 73.8004C4.93103 74.355 4.95488 75.0427 5.31148 75.574C5.66808 76.1051 6.29612 76.3876 6.92953 76.3024L17.7658 74.8473L21.9237 84.9593C22.1672 85.5514 22.7262 85.9536 23.3652 85.9963C23.4028 85.9988 23.4403 86 23.4776 86C24.0747 86 24.6305 85.682 24.9319 85.1602L38.9478 60.884C38.9499 60.8803 38.9515 60.8764 38.9536 60.8726C40.2779 61.0484 41.6281 61.1408 42.9997 61.1408C44.3713 61.1408 45.7215 61.0484 47.0458 60.8726C47.0479 60.8763 47.0494 60.8801 47.0516 60.884L61.0675 85.1602C61.3689 85.682 61.9248 86 62.5218 86C62.5591 86 62.5966 85.9988 62.6342 85.9963C63.2731 85.9536 63.8321 85.5514 64.0757 84.9593L68.2338 74.8473L79.07 76.3024C79.7048 76.3876 80.3315 76.1051 80.6881 75.574C81.0437 75.0427 81.0677 74.355 80.7489 73.8004ZM23.7309 80.5212L20.7041 73.1604L23.4203 68.7278C23.9051 67.9369 23.6568 66.9027 22.8658 66.4181C22.0749 65.9335 21.0407 66.1816 20.5561 66.9726L17.8113 71.4516L9.86128 72.5191L21.4975 52.2794C25.3091 56.0549 30.1057 58.8369 35.4632 60.2002L23.7309 80.5212ZM42.9992 57.7816C27.995 57.7816 15.7881 45.5747 15.7881 30.5705C15.7881 15.5663 27.995 3.35939 42.9992 3.35939C58.0034 3.35939 70.2103 15.5663 70.2103 30.5705C70.2103 45.5747 58.0034 57.7816 42.9992 57.7816ZM68.1873 71.4516L65.4425 66.9726C64.9579 66.1816 63.9237 65.9332 63.1327 66.4181C62.3417 66.9028 62.0935 67.9369 62.5782 68.7278L65.2945 73.1604L62.2677 80.5212L50.5353 60.2002C55.8929 58.8369 60.6896 56.0549 64.501 52.2794L76.1373 72.5191L68.1873 71.4516Z" fill="url(#paint1_linear_1_671)"/>
<path d="M42.9999 8.73444C39.2515 8.73444 35.5533 9.7006 32.305 11.5288C31.4965 11.9836 31.21 13.0079 31.6648 13.8164C32.1197 14.6248 33.144 14.9117 33.9524 14.4565C36.6989 12.9108 39.8275 12.0938 42.9999 12.0938C53.188 12.0938 61.4766 20.3825 61.4766 30.5705C61.4766 33.3544 60.8734 36.0294 59.6839 38.5208C59.2843 39.358 59.6389 40.3606 60.476 40.7604C60.7097 40.8719 60.9559 40.9247 61.1986 40.9247C61.8255 40.9247 62.4273 40.5718 62.7156 39.9682C64.1225 37.0212 64.836 33.8593 64.836 30.5705C64.836 18.5301 55.0405 8.73444 42.9999 8.73444Z" fill="url(#paint2_linear_1_671)"/>
<path d="M58.6305 43.4071C57.9648 42.7611 56.9014 42.777 56.2554 43.4427L56.2181 43.481C55.5701 44.1446 55.5827 45.2082 56.2463 45.8562C56.573 46.1752 56.9965 46.3341 57.4196 46.3341C57.8562 46.3341 58.2925 46.165 58.6216 45.8279L58.6659 45.7823C59.3121 45.1167 59.2962 44.0532 58.6305 43.4071Z" fill="url(#paint3_linear_1_671)"/>
<path d="M54.1843 47.4254C53.7366 46.6129 52.715 46.3171 51.9026 46.7649C49.193 48.258 46.1143 49.0472 42.9993 49.0472C32.8113 49.0472 24.5226 40.7585 24.5226 30.5705C24.5226 27.9016 25.0788 25.3276 26.1755 22.9201C26.5601 22.0759 26.1874 21.0798 25.3432 20.6952C24.499 20.3107 23.5029 20.6833 23.1183 21.5275C21.8209 24.3752 21.1631 27.4177 21.1631 30.5705C21.1631 42.6109 30.9587 52.4065 42.9991 52.4065C46.6795 52.4065 50.3189 51.4731 53.5238 49.7071C54.3363 49.2593 54.6321 48.2379 54.1843 47.4254Z" fill="url(#paint4_linear_1_671)"/>
<path d="M29.397 15.6043C28.7182 14.9719 27.6553 15.0098 27.0231 15.6884L26.9858 15.7286C26.3559 16.4095 26.3971 17.4723 27.078 18.1022C27.401 18.4011 27.81 18.549 28.2182 18.549C28.67 18.549 29.1205 18.3677 29.4516 18.0099L29.4811 17.9782C30.1134 17.2994 30.0758 16.2365 29.397 15.6043Z" fill="url(#paint5_linear_1_671)"/>
<defs>
<linearGradient id="paint0_linear_1_671" x1="33.509" y1="62.6784" x2="66.6734" y2="12.6044" gradientUnits="userSpaceOnUse">
<stop stop-color="#F07F1B"/>
<stop offset="1" stop-color="#FFEE00"/>
</linearGradient>
<linearGradient id="paint1_linear_1_671" x1="16.3475" y1="150.936" x2="132.56" y2="2.61197" gradientUnits="userSpaceOnUse">
<stop stop-color="#F07F1B"/>
<stop offset="1" stop-color="#FFEE00"/>
</linearGradient>
<linearGradient id="paint2_linear_1_671" x1="36.4257" y1="65.2307" x2="77.7899" y2="3.22455" gradientUnits="userSpaceOnUse">
<stop stop-color="#F07F1B"/>
<stop offset="1" stop-color="#FFEE00"/>
</linearGradient>
<linearGradient id="paint3_linear_1_671" x1="56.2471" y1="48.9024" x2="60.6775" y2="42.5014" gradientUnits="userSpaceOnUse">
<stop stop-color="#F07F1B"/>
<stop offset="1" stop-color="#FFEE00"/>
</linearGradient>
<linearGradient id="paint4_linear_1_671" x1="26.1166" y1="76.4654" x2="66.9732" y2="14.8823" gradientUnits="userSpaceOnUse">
<stop stop-color="#F07F1B"/>
<stop offset="1" stop-color="#FFEE00"/>
</linearGradient>
<linearGradient id="paint5_linear_1_671" x1="27.0448" y1="21.1127" x2="31.468" y2="14.7248" gradientUnits="userSpaceOnUse">
<stop stop-color="#F07F1B"/>
<stop offset="1" stop-color="#FFEE00"/>
</linearGradient>
</defs>
</svg>
