<svg width="78" height="78" viewBox="0 0 78 78" fill="none" xmlns="http://www.w3.org/2000/svg">
<path d="M57.758 61.1791H51.6803V60.6519C51.6803 60.2419 51.9177 59.8098 52.392 59.3558C54.388 57.4473 58.6108 55.8727 58.6108 52.0843C58.6108 49.3737 56.3006 47.7324 53.7179 47.7324C51.3262 47.7324 49.0654 49.238 49.0654 51.7428C49.0654 52.7598 49.4874 53.268 50.3312 53.268C51.1007 53.268 51.7892 52.8449 51.7892 52.1915C51.7892 51.5339 51.9719 51.0399 52.3373 50.7109C53.1038 50.0206 54.5968 50.0444 55.2622 50.8102C56.6684 52.4313 55.0063 54.2386 53.3013 55.5115C52.7241 56.0078 48.9565 58.0472 48.9565 60.6412V62.7657C48.9565 63.3042 49.6861 63.6637 50.1741 63.6637H57.7782C58.0061 63.6637 58.2091 63.5363 58.3876 63.2822C58.9886 62.4229 58.484 61.1791 57.758 61.1791V61.1791Z" fill="url(#paint0_linear_1_699)"/>
<path d="M67.7418 57.5616V55.1633C67.7418 53.9047 64.9086 53.9101 64.9086 55.1633V57.5616H62.3586L66.5433 49.1928C67.1235 48.0305 64.7444 46.9754 64.0368 48.4673L58.872 58.5393C58.4881 59.2457 58.8506 60.0455 59.6783 60.0455H64.9092V62.7305C64.9092 63.9546 67.7418 63.9874 67.7418 62.7305V60.0455H68.7666C69.4718 60.0455 69.9806 58.7952 69.42 57.9311C69.054 57.367 68.5732 57.6288 67.7418 57.5616V57.5616Z" fill="url(#paint1_linear_1_699)"/>
<path d="M36.1193 30.9853V17.1446C36.1193 16.3037 35.4373 15.6212 34.5958 15.6212C33.7544 15.6212 33.0724 16.3037 33.0724 17.1446V30.9853C31.3425 31.4994 29.9761 32.8658 29.462 34.5957H22.0894C21.2479 34.5957 20.5659 35.2777 20.5659 36.1191C20.5659 36.96 21.2479 37.642 22.0894 37.642H29.462C30.1201 39.8557 32.172 41.4744 34.5958 41.4744C37.5493 41.4744 39.9517 39.072 39.9517 36.1191C39.9517 33.6947 38.3324 31.6428 36.1193 30.9853V30.9853ZM34.5958 38.4281C33.3229 38.4281 32.2869 37.392 32.2869 36.1191C32.2869 34.8456 33.3223 33.8102 34.5958 33.8102C35.8687 33.8102 36.9048 34.8456 36.9048 36.1191C36.9048 37.392 35.8687 38.4281 34.5958 38.4281Z" fill="url(#paint2_linear_1_699)"/>
<path d="M50.023 42.4385C50.023 41.4613 49.1232 40.7597 48.2026 40.9436C47.3694 41.1132 46.8428 41.9166 47.007 42.7354C47.1778 43.5781 47.9901 44.0952 48.7971 43.9316C49.5272 43.7828 50.023 43.1496 50.023 42.4385Z" fill="url(#paint3_linear_1_699)"/>
<path d="M77.3621 52.2896C76.0958 47.4628 73.0929 43.3894 68.8779 40.7585C69.085 39.2196 69.1909 37.664 69.1909 36.1191C69.1909 16.9988 53.7185 1.52341 34.5957 1.52341C15.476 1.52341 0 16.9964 0 36.1191C0 58.7006 21.4186 75.4834 43.5858 69.5307C48.3317 75.2935 56.0661 77.9459 63.5125 75.9922C73.8659 73.2756 80.0787 62.643 77.3621 52.2896ZM62.7395 73.0453C55.937 74.8306 48.9916 72.0425 45.1735 66.5933C45.1563 66.5683 45.1384 66.5433 45.1212 66.5177C41.4197 61.1714 41.2203 54.0922 44.7516 48.4739C45.4639 47.3456 45.771 47.2117 45.8037 46.5499C45.8775 45.0521 43.9625 44.36 43.0633 45.5591C40.0414 49.5879 38.6573 54.6384 39.3398 59.7521C24.3405 62.7448 10.4945 51.2184 10.4945 36.1191C10.4945 22.8295 21.3061 12.0179 34.5957 12.0179C40.505 12.0179 46.043 14.1067 50.4252 17.9426L48.6947 17.7998C47.8568 17.7296 47.1207 18.3544 47.0516 19.1923C46.982 20.0308 47.6057 20.7669 48.4442 20.836C53.9607 21.2894 53.6649 21.271 53.7804 21.271C54.5605 21.271 55.2241 20.6753 55.2961 19.8844L55.7668 14.6791C55.8429 13.8412 55.2252 13.1003 54.3874 13.0248C53.5495 12.948 52.8086 13.5669 52.7324 14.4048L52.6056 15.8056C47.8354 11.5656 41.5232 8.971 34.5957 8.971C19.6268 8.971 7.44819 21.1496 7.44819 36.1191C7.44819 53.2394 23.1634 66.1101 39.9742 62.7299C40.4104 64.207 41.0376 65.6417 41.7309 66.8557C21.9 71.4439 3.04688 56.3124 3.04688 36.1191C3.04688 18.7228 17.1994 4.57028 34.5957 4.57028C51.9915 4.57028 66.1446 18.7228 66.1446 36.1191C66.1446 37.1665 66.0916 38.2198 65.9875 39.2684C64.592 38.69 63.1465 38.2787 61.6737 38.0413C61.7183 37.4016 61.7433 36.7595 61.7433 36.1191C61.7433 32.2385 60.9411 28.4906 59.3594 24.9796C59.0136 24.2125 58.1114 23.8709 57.345 24.2161C56.5779 24.5618 56.2357 25.4634 56.5815 26.2311C57.9847 29.3458 58.6964 32.673 58.6964 36.1191C58.6964 36.6779 58.6774 37.2391 58.6387 37.7979C55.8322 37.7943 53.5875 38.4585 53.6596 38.44C52.8473 38.6531 52.3587 39.4844 52.5729 40.3003C53.0526 42.1284 54.7331 41.2126 56.5208 40.9817C64.5105 39.9563 72.2883 44.9563 74.4152 53.0626C76.7051 61.7909 71.4677 70.7554 62.7395 73.0453V73.0453Z" fill="url(#paint4_linear_1_699)"/>
<defs>
<linearGradient id="paint0_linear_1_699" x1="50.4021" y1="75.6929" x2="72.3934" y2="56.3457" gradientUnits="userSpaceOnUse">
<stop stop-color="#F07F1B"/>
<stop offset="1" stop-color="#FFEE00"/>
</linearGradient>
<linearGradient id="paint1_linear_1_699" x1="60.3496" y1="75.6883" x2="82.5175" y2="53.6825" gradientUnits="userSpaceOnUse">
<stop stop-color="#F07F1B"/>
<stop offset="1" stop-color="#FFEE00"/>
</linearGradient>
<linearGradient id="paint2_linear_1_699" x1="23.4557" y1="60.9955" x2="59.3204" y2="22.1279" gradientUnits="userSpaceOnUse">
<stop stop-color="#F07F1B"/>
<stop offset="1" stop-color="#FFEE00"/>
</linearGradient>
<linearGradient id="paint3_linear_1_699" x1="47.4311" y1="46.2628" x2="51.4008" y2="40.5284" gradientUnits="userSpaceOnUse">
<stop stop-color="#F07F1B"/>
<stop offset="1" stop-color="#FFEE00"/>
</linearGradient>
<linearGradient id="paint4_linear_1_699" x1="11.6273" y1="133.339" x2="108.089" y2="-11.4483" gradientUnits="userSpaceOnUse">
<stop stop-color="#F07F1B"/>
<stop offset="1" stop-color="#FFEE00"/>
</linearGradient>
</defs>
</svg>
