<svg width="20" height="20" viewBox="0 0 20 20" fill="none" xmlns="http://www.w3.org/2000/svg">
<path d="M10 20C4.47715 20 0 15.5228 0 10C0 4.47715 4.47715 0 10 0C15.5228 0 20 4.47715 20 10C20 15.5228 15.5228 20 10 20ZM10 10.3472V5.45455C10 4.95247 9.59299 4.54545 9.09091 4.54545C8.58883 4.54545 8.18182 4.95247 8.18182 5.45455V10.9091C8.18182 11.2534 8.37637 11.5682 8.68435 11.7222L12.3207 13.5404C12.7698 13.7649 13.3159 13.5829 13.5404 13.1338C13.7649 12.6848 13.5829 12.1387 13.1338 11.9142L10 10.3472Z" fill="#FEB801"/>
</svg>
