<svg width="107" height="107" viewBox="0 0 107 107" fill="none" xmlns="http://www.w3.org/2000/svg">
<g clip-path="url(#clip0_1_706)">
<path d="M101.497 47.639L106.631 41.5503C106.911 41.2184 107.04 40.7852 106.989 40.3543L104.604 20.3701C104.532 19.7622 104.112 19.2521 103.529 19.064C102.946 18.8765 102.307 19.0448 101.893 19.4957L91.0948 31.2582L71.3608 33.268C70.4996 33.3556 69.8726 34.1251 69.9602 34.9861C70.048 35.8473 70.8187 36.4751 71.6783 36.3867L92.0051 34.3165C92.3872 34.2776 92.7414 34.1 93.0009 33.8172L101.895 24.1285L103.795 40.05L99.241 45.4516L90.0256 51.6678C89.5625 51.9805 89.3005 52.5159 89.3383 53.0735L90.0545 63.6278C90.1065 64.3937 90.7055 65.0092 91.4697 65.0819L98.0325 65.7068L101.396 74.2699L99.8592 78.2298L95.3796 72.252C95.0312 71.7872 94.4551 71.5531 93.8808 71.6436L87.0764 72.7182C86.5155 72.8068 86.0466 73.1918 85.8501 73.7245L83.6453 79.7092L70.9203 82.2887C70.0718 82.4606 69.5236 83.2878 69.6956 84.1363C69.8463 84.8796 70.5 85.3925 71.2302 85.3925C71.3334 85.3925 71.4381 85.3822 71.5433 85.3609L85.1254 82.6076C85.6581 82.4995 86.0967 82.1233 86.2846 81.6132L88.4739 75.6709L93.4373 74.8871L99.0444 82.3693C99.3858 82.8249 99.9472 83.06 100.512 82.9823C101.076 82.9047 101.554 82.5275 101.76 81.9967L104.54 74.8336C104.683 74.4666 104.682 74.0597 104.538 73.6933L100.598 63.6646C100.382 63.115 99.8759 62.7334 99.288 62.6773L93.0923 62.0874L92.5272 53.7617L101.175 47.9283C101.296 47.8472 101.404 47.7498 101.497 47.639V47.639Z" fill="url(#paint0_linear_1_706)"/>
<path d="M64.0444 83.6828L58.8493 84.7359L46.4742 71.7525C46.0845 71.3435 45.505 71.1757 44.9566 71.3141L35.9776 73.5767L31.9519 68.6221C31.6869 68.2961 31.3024 68.0901 30.884 68.0501L15.8422 66.6176C15.4035 66.5756 14.9659 66.721 14.6392 67.0182C14.3126 67.3151 14.1262 67.7363 14.1262 68.1778V71.4785L8.17577 77.5625L6.22553 69.0081L8.75131 62.3727C8.90366 61.9723 8.88569 61.5269 8.70116 61.1403C8.51683 60.7535 8.18204 60.4592 7.77494 60.3259L3.43538 58.9027L8.70764 37.3602L18.6599 31.2716L27.1043 35.1995C27.8893 35.5648 28.8213 35.2243 29.1864 34.4394C29.5515 33.6544 29.2113 32.7224 28.4264 32.3573L19.22 28.075C18.7441 27.8537 18.1886 27.8852 17.741 28.159L6.52082 35.0233C6.16806 35.2392 5.91477 35.5859 5.81634 35.9875L0.0452333 59.5673C-0.14954 60.3629 0.301239 61.1741 1.07929 61.4293L5.23703 62.7927L3.12671 68.3365C3.01657 68.6255 2.99463 68.9408 3.06339 69.2424L5.75803 81.0617C5.88551 81.621 6.30849 82.0661 6.86042 82.2218C7.41235 82.3773 8.00545 82.2193 8.4067 81.8093L16.8141 73.2135C17.1007 72.9207 17.2609 72.5272 17.2609 72.1176V69.9015L29.9331 71.1086L34.1749 76.3293C34.5592 76.8024 35.1834 77.0097 35.7742 76.8607L44.8358 74.5774L57.1774 87.5256C57.4762 87.8391 57.8877 88.0115 58.312 88.0115C58.4154 88.0115 58.5197 88.0013 58.6234 87.9804L64.667 86.7553C65.5154 86.5833 66.0636 85.7561 65.8916 84.9077C65.72 84.0592 64.8937 83.5102 64.0444 83.6828V83.6828Z" fill="url(#paint1_linear_1_706)"/>
<path d="M65.4751 28.9337C57.7815 28.9337 54.042 28.0363 50.083 27.0861C46.386 26.1987 42.5714 25.2834 35.5264 25.1649V23.3755C35.5264 22.5099 34.8246 21.8082 33.959 21.8082C33.0934 21.8082 32.3916 22.5099 32.3916 23.3755V59.6477C32.3916 60.5133 33.0934 61.2151 33.959 61.2151C34.8246 61.2151 35.5264 60.5133 35.5264 59.6477V51.8254C42.1802 51.9389 45.6709 52.7767 49.3513 53.6601C53.3134 54.611 57.4106 55.5943 65.4751 55.5943C66.3407 55.5943 67.0425 54.8925 67.0425 54.0269V30.5011C67.0425 29.6353 66.3407 28.9337 65.4751 28.9337V28.9337ZM49.3513 30.1341C53.0482 31.0215 56.8628 31.9368 63.9077 32.0553V36.8293C57.2541 36.7159 53.7634 35.878 50.083 34.9947C46.386 34.1073 42.5714 33.192 35.5264 33.0735V28.2994C42.1802 28.4131 45.6709 29.2507 49.3513 30.1341V30.1341ZM50.083 50.6119C46.386 49.7245 42.5714 48.8092 35.5264 48.6907V43.9367C42.18 44.0502 45.6707 44.888 49.3511 45.7712C49.8681 45.8953 50.3849 46.0192 50.9108 46.1413C51.0299 46.1688 51.149 46.182 51.2662 46.182C51.9791 46.182 52.6238 45.6926 52.7918 44.9684C52.9874 44.1252 52.4625 43.283 51.6192 43.0874C51.1013 42.9672 50.592 42.845 50.0828 42.7227C46.3858 41.8356 42.5714 40.9202 35.5266 40.8015V36.2082C42.1804 36.3217 45.6711 37.1595 49.3515 38.0429C53.0485 38.9303 56.863 39.8456 63.9079 39.9641V44.5572C61.9146 44.5227 60.1031 44.4207 58.4068 44.2483C57.5439 44.1605 56.7765 44.7879 56.6888 45.6489C56.6012 46.5101 57.2283 47.2792 58.0894 47.367C59.8891 47.55 61.8047 47.6574 63.9079 47.6926V52.4463C57.2536 52.3328 53.7634 51.495 50.083 50.6119V50.6119Z" fill="url(#paint2_linear_1_706)"/>
</g>
<defs>
<linearGradient id="paint0_linear_1_706" x1="75.2296" y1="135.532" x2="165.692" y2="62.0217" gradientUnits="userSpaceOnUse">
<stop stop-color="#F07F1B"/>
<stop offset="1" stop-color="#FFEE00"/>
</linearGradient>
<linearGradient id="paint1_linear_1_706" x1="9.82703" y1="133.378" x2="85.2824" y2="13.7233" gradientUnits="userSpaceOnUse">
<stop stop-color="#F07F1B"/>
<stop offset="1" stop-color="#FFEE00"/>
</linearGradient>
<linearGradient id="paint2_linear_1_706" x1="37.5569" y1="90.9703" x2="90.8622" y2="23.2273" gradientUnits="userSpaceOnUse">
<stop stop-color="#F07F1B"/>
<stop offset="1" stop-color="#FFEE00"/>
</linearGradient>
<clipPath id="clip0_1_706">
<rect width="107" height="107" fill="white"/>
</clipPath>
</defs>
</svg>
