<svg width="83" height="83" viewBox="0 0 83 83" fill="none" xmlns="http://www.w3.org/2000/svg">
<g clip-path="url(#clip0_1_694)">
<path d="M45.1595 47.1757V25.7659C45.1595 25.0852 44.6079 24.5336 43.9266 24.5336C43.2458 24.5336 42.6943 25.0852 42.6943 25.7659V47.7982C42.6943 48.1971 42.8868 48.5708 43.2116 48.8019C47.8147 52.0814 50.5623 57.4082 50.5623 63.0517C50.5623 72.6915 42.7196 80.5348 33.0792 80.5348C23.4394 80.5348 15.5961 72.6915 15.5961 63.0517C15.5961 57.4082 18.3443 52.0814 22.9473 48.8019C23.2716 48.5708 23.4647 48.1971 23.4647 47.7982V12.0803C23.4647 6.77883 27.7777 2.4652 33.0792 2.4652C38.3807 2.4652 42.6943 6.77883 42.6943 12.0803V20.8349C42.6943 21.5156 43.2458 22.0678 43.9266 22.0678C44.6079 22.0678 45.1595 21.5156 45.1595 20.8349V12.0803C45.1595 5.41927 39.7402 0 33.0792 0C26.4181 0 20.9989 5.41927 20.9989 12.0803V47.1757C16.0609 50.9403 13.1309 56.8276 13.1309 63.0517C13.1309 74.0511 22.0798 83 33.0792 83C44.0792 83 53.0281 74.0511 53.0281 63.0517C53.0281 56.8269 50.0981 50.9403 45.1595 47.1757V47.1757Z" fill="url(#paint0_linear_1_694)"/>
<path d="M33.0791 73.9605C30.8311 73.9605 28.6711 73.2791 26.8322 71.9899C26.2749 71.5985 25.5056 71.7334 25.1148 72.2913C24.7241 72.8485 24.859 73.6173 25.4169 74.008C27.6725 75.5898 30.322 76.4257 33.0791 76.4257C40.4538 76.4257 46.4538 70.4264 46.4538 63.0517C46.4538 58.7342 44.3501 54.6587 40.8274 52.1485L38.5851 50.5515V12.0803C38.5851 9.04392 36.1155 6.57428 33.0791 6.57428C30.0434 6.57428 27.5731 9.04392 27.5731 12.0803V50.5515L25.3314 52.1485C21.8081 54.6587 19.7051 58.7342 19.7051 63.0517C19.7051 65.7277 20.496 68.312 21.993 70.5258C22.3742 71.0894 23.1404 71.2376 23.7046 70.8564C24.2688 70.4751 24.4164 69.7089 24.0352 69.1447C22.8156 67.3406 22.1703 65.2332 22.1703 63.0517C22.1703 59.5296 23.887 56.2044 26.7619 54.1566L29.5209 52.1903C29.8458 51.9592 30.0389 51.585 30.0389 51.1867V46.4272H36.1199V51.1867C36.1199 51.585 36.3124 51.9592 36.6373 52.1903L39.3969 54.1566C42.2718 56.2044 43.9879 59.5296 43.9879 63.0517C43.9879 69.0668 39.0942 73.9605 33.0791 73.9605ZM36.1199 25.125H30.0389V18.1721H36.1199V25.125ZM30.0389 27.5902H36.1199V34.5432H30.0389V27.5902ZM33.0791 9.03948C34.7559 9.03948 36.1199 10.4035 36.1199 12.0803V15.7069H30.0389V12.0803C30.0389 10.4035 31.4029 9.03948 33.0791 9.03948ZM30.0389 43.962V37.0091H36.1199V43.962H30.0389Z" fill="url(#paint1_linear_1_694)"/>
<path d="M68.5016 27.5681C67.6416 27.5681 67.1718 27.898 67.1072 28.5458C66.9216 29.9991 66.6417 32.1939 63.2191 32.1939C60.4138 32.1939 59.0498 30.7691 59.0498 27.8379V18.4292C59.0498 15.5384 60.4214 14.0725 63.1254 14.0725C66.2707 14.0725 67.0267 15.9849 67.1072 17.5895C67.142 18.224 67.6378 18.5736 68.5016 18.5736C69.3849 18.5736 69.8966 18.3253 69.8966 17.0538C69.8966 13.8027 67.0863 11.5326 63.0627 11.5326C58.7395 11.5326 56.2598 14.0465 56.2598 18.4292V27.8379C56.2598 30.1935 56.9329 31.9875 58.2608 33.1697C59.4095 34.193 61.0591 34.7338 63.0316 34.7338C67.0736 34.7338 69.8966 32.425 69.8966 29.1189C69.8966 27.8277 69.3628 27.5681 68.5016 27.5681Z" fill="url(#paint2_linear_1_694)"/>
<path d="M58.0028 8.01554C58.0028 5.7954 56.1961 3.98877 53.976 3.98877C51.7552 3.98877 49.9492 5.7954 49.9492 8.01554C49.9492 10.2357 51.7552 12.0423 53.976 12.0423C56.1961 12.0423 58.0028 10.2357 58.0028 8.01554ZM53.976 9.57711C53.1148 9.57711 52.4144 8.87611 52.4144 8.01554C52.4144 7.15433 53.1148 6.45397 53.976 6.45397C54.8366 6.45397 55.5369 7.15433 55.5369 8.01554C55.5369 8.87611 54.8366 9.57711 53.976 9.57711Z" fill="url(#paint3_linear_1_694)"/>
</g>
<defs>
<linearGradient id="paint0_linear_1_694" x1="19.0783" y1="145.671" x2="127.332" y2="70.4641" gradientUnits="userSpaceOnUse">
<stop stop-color="#F07F1B"/>
<stop offset="1" stop-color="#FFEE00"/>
</linearGradient>
<linearGradient id="paint1_linear_1_694" x1="23.6924" y1="129.169" x2="106.067" y2="83.5783" gradientUnits="userSpaceOnUse">
<stop stop-color="#F07F1B"/>
<stop offset="1" stop-color="#FFEE00"/>
</linearGradient>
<linearGradient id="paint2_linear_1_694" x1="58.2926" y1="52.2525" x2="90.1576" y2="25.1838" gradientUnits="userSpaceOnUse">
<stop stop-color="#F07F1B"/>
<stop offset="1" stop-color="#FFEE00"/>
</linearGradient>
<linearGradient id="paint3_linear_1_694" x1="51.1497" y1="18.1233" x2="61.6386" y2="2.96395" gradientUnits="userSpaceOnUse">
<stop stop-color="#F07F1B"/>
<stop offset="1" stop-color="#FFEE00"/>
</linearGradient>
<clipPath id="clip0_1_694">
<rect width="83" height="83" fill="white"/>
</clipPath>
</defs>
</svg>
