<svg width="13" height="17" viewBox="0 0 13 17" fill="none" xmlns="http://www.w3.org/2000/svg">
<path d="M8.39651 5.2934H13V16.121C13.0002 16.2251 12.9794 16.3283 12.9387 16.4246C12.8979 16.5208 12.8381 16.6083 12.7626 16.6819C12.6871 16.7556 12.5975 16.814 12.4988 16.8537C12.4002 16.8935 12.2945 16.9138 12.1877 16.9136H0.812277C0.705541 16.9138 0.599809 16.8935 0.501152 16.8537C0.402495 16.814 0.312856 16.7556 0.237382 16.6819C0.161908 16.6083 0.102086 16.5208 0.0613491 16.4246C0.0206126 16.3283 -0.00023545 16.2251 2.00581e-06 16.121V0.792607C-0.00023545 0.688455 0.0206126 0.585284 0.0613491 0.489016C0.102086 0.392749 0.161908 0.305281 0.237382 0.231634C0.312856 0.157988 0.402495 0.0996142 0.501152 0.0598642C0.599809 0.0201142 0.705541 -0.000228955 0.812277 2.75076e-06H7.58063V4.49377C7.57992 4.59868 7.60051 4.70268 7.64121 4.79978C7.68192 4.89688 7.74193 4.98516 7.81779 5.0595C7.89364 5.13385 7.98384 5.1928 8.08317 5.23294C8.1825 5.27309 8.28899 5.29364 8.39651 5.2934ZM13 4.23894H8.66126V2.75076e-06H8.86839C8.97537 -0.000272284 9.08136 0.0200798 9.18027 0.0598903C9.27918 0.0997007 9.36905 0.158185 9.44472 0.231984L12.7587 3.46918C12.9107 3.61735 12.9962 3.81837 12.9964 4.02805L13 4.23894Z" fill="#FEB801"/>
</svg>
